<svg width="1134" height="610" viewBox="0 0 1134 610" fill="none" xmlns="http://www.w3.org/2000/svg">
<path d="M835.736 610C914.894 610 990.809 579.009 1046.78 523.845C1102.76 468.68 1134.2 393.862 1134.2 315.848C1134.2 237.833 1102.76 163.015 1046.78 107.85C990.81 52.686 914.894 21.695 835.736 21.695L835.736 109.941C891.147 109.941 944.288 131.634 983.469 170.249C1022.65 208.864 1044.66 261.238 1044.66 315.848C1044.66 370.457 1022.65 422.831 983.469 461.446C944.287 500.061 891.147 521.754 835.736 521.754L835.736 610Z" fill="#42B814"/>
<path d="M-6 315.847C-6 369.843 9.08009 422.797 37.588 468.907C66.0959 515.017 106.932 552.504 155.621 577.26C204.31 602.017 258.974 613.088 313.623 609.26C368.272 605.432 420.798 586.853 465.445 555.559L413.551 483.646C382.298 505.551 345.53 518.557 307.275 521.236C269.021 523.916 230.756 516.166 196.674 498.836C162.591 481.507 134.006 455.266 114.051 422.989C94.0954 390.712 83.5393 353.644 83.5393 315.847L-6 315.847Z" fill="#42B814"/>
<path d="M617.757 521.864H835.736V610H617.757V521.864Z" fill="#42B814"/>
<path d="M408.609 489.567L765.872 53.6441L835.44 109.024L478.177 544.947L408.609 489.567Z" fill="#42B814"/>
<path d="M564.101 204.576V21.695L713.892 21.695L564.101 204.576Z" fill="#42B814"/>
<path d="M835.736 21.6948L835.736 109.926L834.618 109.926L827.352 103.22L765.871 53.6439L791.582 21.6949L835.736 21.6948Z" fill="#42B814"/>
<path d="M437.784 109.831H527.211V254.153H437.784V109.831Z" fill="#42B814"/>
<path d="M437.784 363.22L437.784 254.153L527.211 254.153L437.784 363.22Z" fill="#42B814"/>
<path d="M466.289 554.915L464.612 556.017L430.043 506.44L478.585 544.449L478.111 545L466.289 554.915Z" fill="#42B814"/>
<path d="M617.757 521.864V610H545.097L617.757 521.864Z" fill="#42B814"/>
<path d="M294.7 21.695V109.831H222.04L294.7 21.695Z" fill="#42B814"/>
<path d="M294.7 21.695L294.7 109.831L527.212 109.831V21.695L294.7 21.695Z" fill="#42B814"/>
</svg>
